Coordinates
version=1
nRows=6
nColumns=63
inDegrees=yes

Units are S.I. units (second, meters, Newtons, ...)
If the header above contains a line with 'inDegrees', this indicates whether rotational values are in degrees (yes) or radians (no).

endheader
time	pelvis_tilt	pelvis_list	pelvis_rotation	pelvis_tx	pelvis_ty	pelvis_tz	hip_flexion_r	hip_adduction_r	hip_rotation_r	knee_angle_r	knee_angle_r_beta	ankle_angle_r	subtalar_angle_r	mtp_angle_r	hip_flexion_l	hip_adduction_l	hip_rotation_l	knee_angle_l	knee_angle_l_beta	ankle_angle_l	subtalar_angle_l	mtp_angle_l	L5_S1_Flex_Ext	L5_S1_Lat_Bending	L5_S1_axial_rotation	L4_L5_Flex_Ext	L4_L5_Lat_Bending	L4_L5_axial_rotation	L3_L4_Flex_Ext	L3_L4_Lat_Bending	L3_L4_axial_rotation	L2_L3_Flex_Ext	L2_L3_Lat_Bending	L2_L3_axial_rotation	L1_L2_Flex_Ext	L1_L2_Lat_Bending	L1_L2_axial_rotation	L1_T12_Flex_Ext	L1_T12_Lat_Bending	L1_T12_axial_rotation	Abs_r3	Abs_r2	Abs_r1	Abs_t1	Abs_t2	neck_flexion	neck_bending	neck_rotation	arm_flex_r	arm_add_r	arm_rot_r	elbow_flex_r	pro_sup_r	wrist_flex_r	wrist_dev_r	arm_flex_l	arm_add_l	arm_rot_l	elbow_flex_l	pro_sup_l	wrist_flex_l	wrist_dev_l
      6.67796610	      3.06701260	      1.78537123	     96.02844273	      0.23986209	      0.92352070	      0.58038771	     -9.60632982	      4.67223864	      6.34725435	      0.75081712	      0.01310423	     33.25377157	    -13.78072827	      0.00000000	     -9.43214420	     -5.33793377	      7.13131619	      0.59797235	      0.01043659	     40.14570229	      9.02598973	      0.00000000	     -0.68146038	      0.54464400	     -1.59576470	     -1.26554006	      0.72437652	     -1.69550000	     -1.11957125	      1.32424742	     -1.69550000	     -0.77884106	      1.32424742	     -1.39629411	     -0.63280410	      1.11063804	     -1.29655882	     -0.38938646	      0.84365355	     -1.19682353	     -4.86760332	      6.16112184	     -8.87516454	      0.00000000	      0.00000000	     12.83264459	     -9.47859653	     -2.20217506	      5.46148349	    -11.02714672	    164.97224605	      0.24181528	     35.03676496	    -20.03119395	     -1.70460171	      4.26884786	     -7.32446724	    161.76637965	      0.76083179	     40.24608657	    -15.38835996	      2.86630066
      6.69491525	      3.24735389	      1.67790921	     95.81610786	      0.24015369	      0.92306036	      0.58072964	     -9.41050419	      4.79976053	      6.79869686	      0.77252273	      0.01348307	     33.44020919	    -13.72999992	      0.00000000	     -9.38698500	     -5.48125786	      7.85815643	      0.62203601	      0.01085658	     39.75235660	      7.70383345	      0.00000000	     -0.67817243	      0.55494312	     -1.55930231	     -1.25943401	      0.73807435	     -1.65675871	     -1.11416948	      1.34928871	     -1.65675871	     -0.77508327	      1.34928871	     -1.36438952	     -0.62975091	      1.13164001	     -1.26693313	     -0.38750772	      0.85960690	     -1.16947674	     -4.84411782	      6.27762758	     -8.67237168	      0.00000000	      0.00000000	     13.76351435	     -8.97558589	     -2.07021287	      5.43459364	    -11.04895850	    165.17780342	      0.24289679	     33.09983028	    -20.58423041	     -2.05454948	      4.13995568	     -7.18077191	    162.64405987	      0.77701745	     41.29194535	    -15.73076953	      3.33433758
      6.71186441	      3.36881305	      1.55544887	     95.55718486	      0.24056921	      0.92262620	      0.58120744	     -9.20517422	      4.86642242	      7.33876939	      0.80191595	      0.01399607	     33.52722121	    -13.89098563	      0.00000000	     -9.33489676	     -5.55097114	      8.80084473	      0.65195906	      0.01137883	     39.22139792	      6.03934431	      0.00000000	     -0.67880879	      0.55882643	     -1.50520816	     -1.26061580	      0.74323915	     -1.59928367	     -1.11521496	      1.35873058	     -1.59928367	     -0.77581056	      1.35873058	     -1.31705714	     -0.63034184	      1.13955885	     -1.22298163	     -0.38787134	      0.86562214	     -1.12890612	     -4.84866329	      6.32155632	     -8.37151620	      0.00000000	      0.00000000	     14.75484457	     -8.40797288	     -1.83615110	      5.41068400	    -11.05685813	    164.95278628	      0.24353164	     30.48588914	    -21.16793618	     -2.62408913	      4.12700782	     -7.04188881	    163.48435619	      0.77535568	     42.89584077	    -15.67752054	      3.67177586
      6.72881356	      3.43257080	      1.38944767	     95.41118961	      0.24090745	      0.92219319	      0.58191261	     -8.96043488	      4.89552299	      7.39484330	      0.84324575	      0.01471741	     33.58858270	    -13.78437225	      0.00000000	     -9.19791480	     -5.57907443	      9.68741841	      0.69936539	      0.01220623	     38.69392194	      4.62329027	      0.00000000	     -0.67874480	      0.55644309	     -1.47123207	     -1.26049697	      0.74006931	     -1.56318407	     -1.11510984	      1.35293572	     -1.56318407	     -0.77573744	      1.35293572	     -1.28732806	     -0.63028242	      1.13469874	     -1.19537605	     -0.38783478	      0.86193034	     -1.10342405	     -4.84820626	      6.29459548	     -8.18255139	      0.00000000	      0.00000000	     15.68272188	     -7.96280050	     -1.64058609	      5.42783561	    -11.04083282	    164.83736624	      0.24522270	     26.91720588	    -21.60209670	     -3.39236638	      4.18401234	     -6.93739873	    164.53092836	      0.76663599	     44.41319449	    -15.66232522	      3.95912545
      6.74576271	      3.38904247	      1.27881734	     95.32146796	      0.24127677	      0.92195087	      0.58250771	     -8.79086835	      4.79869183	      3.29737591	      0.93347230	      0.01629217	     34.82145882	     -8.26191500	      0.00000000	     -9.09828844	     -5.52231930	      8.95847811	      0.76414512	      0.01333685	     38.56466647	      5.36798004	      0.00000000	     -0.68149757	      0.54405492	     -1.47165849	     -1.26560914	      0.72359305	     -1.56363715	     -1.11963236	      1.32281514	     -1.56363715	     -0.77888358	      1.32281514	     -1.28770118	     -0.63283865	      1.10943680	     -1.19572252	     -0.38940771	      0.84274108	     -1.10374387	     -4.86786902	      6.15445810	     -8.18492303	      0.00000000	      0.00000000	     16.17602467	     -7.68379068	     -1.22682135	      5.52440581	    -10.80852505	    162.66997795	      0.24953478	     29.73572740	    -22.66364056	     -2.78077925	      4.14369180	     -6.92785465	    165.32487758	      0.75653749	     44.94986260	    -15.99723133	      4.20548596
      6.76271186	      3.35100074	      1.01812624	     95.31859196	      0.24137467	      0.92161658	      0.58387055	     -8.44408934	      4.77249685	      7.04316389	      0.98624656	      0.01721325	     33.47112847	    -13.88222795	      0.00000000	     -8.77007677	     -5.43674666	     11.53589285	      0.81643847	      0.01424954	     37.81230478	      2.07694690	      0.00000000	     -0.67776912	      0.53156266	     -1.48186739	     -1.25868504	      0.70697833	     -1.57448410	     -1.11350689	      1.29244145	     -1.57448410	     -0.77462233	      1.29244145	     -1.29663396	     -0.62937641	      1.08396257	     -1.20401725	     -0.38727728	      0.82339056	     -1.11140054	     -4.84123706	      6.01314310	     -8.24170185	      0.00000000	      0.00000000	     16.69609218	     -7.51041630	     -1.18029458	      5.72892940	    -10.86768004	    164.54489439	      0.24843519	     20.67575252	    -21.68955418	     -4.87675361	      4.31664072	     -6.89981954	    166.71460821	      0.74279204	     45.80712571	    -15.98117180	      4.55260566
